<svg xmlns="http://www.w3.org/2000/svg" width="16" height="16" shape-rendering="crispEdges" version="1.1"><rect width="1" height="1" x="1" y="1" fill="#639BFF"/><rect width="1" height="1" x="2" y="1" fill="#639BFF"/><rect width="1" height="1" x="3" y="1" fill="#639BFF"/><rect width="1" height="1" x="4" y="1" fill="#639BFF"/><rect width="1" height="1" x="5" y="1" fill="#639BFF"/><rect width="1" height="1" x="6" y="1" fill="#639BFF"/><rect width="1" height="1" x="7" y="1" fill="#639BFF"/><rect width="1" height="1" x="8" y="1" fill="#639BFF"/><rect width="1" height="1" x="9" y="1" fill="#639BFF"/><rect width="1" height="1" x="10" y="1" fill="#639BFF"/><rect width="1" height="1" x="11" y="1" fill="#639BFF"/><rect width="1" height="1" x="12" y="1" fill="#639BFF"/><rect width="1" height="1" x="13" y="1" fill="#639BFF"/><rect width="1" height="1" x="14" y="1" fill="#639BFF"/><rect width="1" height="1" x="1" y="2" fill="#639BFF"/><rect width="1" height="1" x="2" y="2" fill="#639BFF"/><rect width="1" height="1" x="3" y="2" fill="#639BFF"/><rect width="1" height="1" x="4" y="2" fill="#639BFF"/><rect width="1" height="1" x="5" y="2" fill="#639BFF"/><rect width="1" height="1" x="6" y="2" fill="#639BFF"/><rect width="1" height="1" x="7" y="2" fill="#639BFF"/><rect width="1" height="1" x="8" y="2" fill="#639BFF"/><rect width="1" height="1" x="9" y="2" fill="#639BFF"/><rect width="1" height="1" x="10" y="2" fill="#639BFF"/><rect width="1" height="1" x="11" y="2" fill="#639BFF"/><rect width="1" height="1" x="12" y="2" fill="#639BFF"/><rect width="1" height="1" x="13" y="2" fill="#639BFF"/><rect width="1" height="1" x="14" y="2" fill="#639BFF"/><rect width="1" height="1" x="1" y="3" fill="#639BFF"/><rect width="1" height="1" x="2" y="3" fill="#639BFF"/><rect width="1" height="1" x="3" y="3" fill="#639BFF"/><rect width="1" height="1" x="4" y="3" fill="#639BFF"/><rect width="1" height="1" x="5" y="3" fill="#639BFF"/><rect width="1" height="1" x="6" y="3" fill="#639BFF"/><rect width="1" height="1" x="7" y="3" fill="#639BFF"/><rect width="1" height="1" x="8" y="3" fill="#639BFF"/><rect width="1" height="1" x="9" y="3" fill="#639BFF"/><rect width="1" height="1" x="10" y="3" fill="#639BFF"/><rect width="1" height="1" x="11" y="3" fill="#639BFF"/><rect width="1" height="1" x="12" y="3" fill="#639BFF"/><rect width="1" height="1" x="13" y="3" fill="#639BFF"/><rect width="1" height="1" x="14" y="3" fill="#639BFF"/><rect width="1" height="1" x="1" y="4" fill="#639BFF"/><rect width="1" height="1" x="2" y="4" fill="#639BFF"/><rect width="1" height="1" x="3" y="4" fill="#639BFF"/><rect width="1" height="1" x="4" y="4" fill="#639BFF"/><rect width="1" height="1" x="5" y="4" fill="#639BFF"/><rect width="1" height="1" x="6" y="4" fill="#639BFF"/><rect width="1" height="1" x="7" y="4" fill="#639BFF"/><rect width="1" height="1" x="8" y="4" fill="#639BFF"/><rect width="1" height="1" x="9" y="4" fill="#639BFF"/><rect width="1" height="1" x="10" y="4" fill="#639BFF"/><rect width="1" height="1" x="11" y="4" fill="#639BFF"/><rect width="1" height="1" x="12" y="4" fill="#639BFF"/><rect width="1" height="1" x="13" y="4" fill="#639BFF"/><rect width="1" height="1" x="14" y="4" fill="#639BFF"/><rect width="1" height="1" x="1" y="5" fill="#639BFF"/><rect width="1" height="1" x="2" y="5" fill="#639BFF"/><rect width="1" height="1" x="3" y="5" fill="#639BFF"/><rect width="1" height="1" x="4" y="5" fill="#639BFF"/><rect width="1" height="1" x="5" y="5" fill="#639BFF"/><rect width="1" height="1" x="6" y="5" fill="#639BFF"/><rect width="1" height="1" x="7" y="5" fill="#639BFF"/><rect width="1" height="1" x="8" y="5" fill="#639BFF"/><rect width="1" height="1" x="9" y="5" fill="#639BFF"/><rect width="1" height="1" x="10" y="5" fill="#639BFF"/><rect width="1" height="1" x="11" y="5" fill="#639BFF"/><rect width="1" height="1" x="12" y="5" fill="#639BFF"/><rect width="1" height="1" x="13" y="5" fill="#639BFF"/><rect width="1" height="1" x="14" y="5" fill="#639BFF"/><rect width="1" height="1" x="1" y="6" fill="#639BFF"/><rect width="1" height="1" x="2" y="6" fill="#639BFF"/><rect width="1" height="1" x="3" y="6" fill="#639BFF"/><rect width="1" height="1" x="4" y="6" fill="#639BFF"/><rect width="1" height="1" x="5" y="6" fill="#639BFF"/><rect width="1" height="1" x="6" y="6" fill="#639BFF"/><rect width="1" height="1" x="7" y="6" fill="#639BFF"/><rect width="1" height="1" x="8" y="6" fill="#639BFF"/><rect width="1" height="1" x="9" y="6" fill="#639BFF"/><rect width="1" height="1" x="10" y="6" fill="#639BFF"/><rect width="1" height="1" x="11" y="6" fill="#639BFF"/><rect width="1" height="1" x="12" y="6" fill="#639BFF"/><rect width="1" height="1" x="13" y="6" fill="#639BFF"/><rect width="1" height="1" x="14" y="6" fill="#639BFF"/><rect width="1" height="1" x="1" y="7" fill="#639BFF"/><rect width="1" height="1" x="2" y="7" fill="#639BFF"/><rect width="1" height="1" x="3" y="7" fill="#639BFF"/><rect width="1" height="1" x="4" y="7" fill="#639BFF"/><rect width="1" height="1" x="5" y="7" fill="#639BFF"/><rect width="1" height="1" x="6" y="7" fill="#639BFF"/><rect width="1" height="1" x="7" y="7" fill="#639BFF"/><rect width="1" height="1" x="8" y="7" fill="#639BFF"/><rect width="1" height="1" x="9" y="7" fill="#639BFF"/><rect width="1" height="1" x="10" y="7" fill="#639BFF"/><rect width="1" height="1" x="11" y="7" fill="#639BFF"/><rect width="1" height="1" x="12" y="7" fill="#639BFF"/><rect width="1" height="1" x="13" y="7" fill="#639BFF"/><rect width="1" height="1" x="14" y="7" fill="#639BFF"/><rect width="1" height="1" x="1" y="8" fill="#639BFF"/><rect width="1" height="1" x="2" y="8" fill="#639BFF"/><rect width="1" height="1" x="3" y="8" fill="#639BFF"/><rect width="1" height="1" x="4" y="8" fill="#639BFF"/><rect width="1" height="1" x="5" y="8" fill="#639BFF"/><rect width="1" height="1" x="6" y="8" fill="#639BFF"/><rect width="1" height="1" x="7" y="8" fill="#639BFF"/><rect width="1" height="1" x="8" y="8" fill="#639BFF"/><rect width="1" height="1" x="9" y="8" fill="#639BFF"/><rect width="1" height="1" x="10" y="8" fill="#639BFF"/><rect width="1" height="1" x="11" y="8" fill="#639BFF"/><rect width="1" height="1" x="12" y="8" fill="#639BFF"/><rect width="1" height="1" x="13" y="8" fill="#639BFF"/><rect width="1" height="1" x="14" y="8" fill="#639BFF"/><rect width="1" height="1" x="5" y="9" fill="#639BFF"/><rect width="1" height="1" x="10" y="9" fill="#639BFF"/><rect width="1" height="1" x="4" y="10" fill="#639BFF"/><rect width="1" height="1" x="11" y="10" fill="#639BFF"/><rect width="1" height="1" x="3" y="11" fill="#639BFF"/><rect width="1" height="1" x="12" y="11" fill="#639BFF"/><rect width="1" height="1" x="2" y="12" fill="#639BFF"/><rect width="1" height="1" x="13" y="12" fill="#639BFF"/><rect width="1" height="1" x="0" y="13" fill="#639BFF"/><rect width="1" height="1" x="1" y="13" fill="#639BFF"/><rect width="1" height="1" x="2" y="13" fill="#639BFF"/><rect width="1" height="1" x="3" y="13" fill="#639BFF"/><rect width="1" height="1" x="4" y="13" fill="#639BFF"/><rect width="1" height="1" x="5" y="13" fill="#639BFF"/><rect width="1" height="1" x="10" y="13" fill="#639BFF"/><rect width="1" height="1" x="11" y="13" fill="#639BFF"/><rect width="1" height="1" x="12" y="13" fill="#639BFF"/><rect width="1" height="1" x="13" y="13" fill="#639BFF"/><rect width="1" height="1" x="14" y="13" fill="#639BFF"/><rect width="1" height="1" x="15" y="13" fill="#639BFF"/><rect width="1" height="1" x="0" y="14" fill="#639BFF"/><rect width="1" height="1" x="1" y="14" fill="#639BFF"/><rect width="1" height="1" x="2" y="14" fill="#639BFF"/><rect width="1" height="1" x="3" y="14" fill="#639BFF"/><rect width="1" height="1" x="4" y="14" fill="#639BFF"/><rect width="1" height="1" x="5" y="14" fill="#639BFF"/><rect width="1" height="1" x="10" y="14" fill="#639BFF"/><rect width="1" height="1" x="11" y="14" fill="#639BFF"/><rect width="1" height="1" x="12" y="14" fill="#639BFF"/><rect width="1" height="1" x="13" y="14" fill="#639BFF"/><rect width="1" height="1" x="14" y="14" fill="#639BFF"/><rect width="1" height="1" x="15" y="14" fill="#639BFF"/><rect width="1" height="1" x="0" y="15" fill="#639BFF"/><rect width="1" height="1" x="1" y="15" fill="#639BFF"/><rect width="1" height="1" x="2" y="15" fill="#639BFF"/><rect width="1" height="1" x="3" y="15" fill="#639BFF"/><rect width="1" height="1" x="4" y="15" fill="#639BFF"/><rect width="1" height="1" x="5" y="15" fill="#639BFF"/><rect width="1" height="1" x="10" y="15" fill="#639BFF"/><rect width="1" height="1" x="11" y="15" fill="#639BFF"/><rect width="1" height="1" x="12" y="15" fill="#639BFF"/><rect width="1" height="1" x="13" y="15" fill="#639BFF"/><rect width="1" height="1" x="14" y="15" fill="#639BFF"/><rect width="1" height="1" x="15" y="15" fill="#639BFF"/></svg>