<svg xmlns="http://www.w3.org/2000/svg" width="16" height="17" shape-rendering="crispEdges" version="1.1"><rect width="1" height="1" x="1" y="4" fill="#5B6EE1"/><rect width="1" height="1" x="2" y="4" fill="#5B6EE1"/><rect width="1" height="1" x="3" y="4" fill="#5B6EE1"/><rect width="1" height="1" x="4" y="4" fill="#5B6EE1"/><rect width="1" height="1" x="5" y="4" fill="#5B6EE1"/><rect width="1" height="1" x="6" y="4" fill="#5B6EE1"/><rect width="1" height="1" x="7" y="4" fill="#5B6EE1"/><rect width="1" height="1" x="8" y="4" fill="#5B6EE1"/><rect width="1" height="1" x="9" y="4" fill="#5B6EE1"/><rect width="1" height="1" x="10" y="4" fill="#5B6EE1"/><rect width="1" height="1" x="11" y="4" fill="#5B6EE1"/><rect width="1" height="1" x="12" y="4" fill="#5B6EE1"/><rect width="1" height="1" x="13" y="4" fill="#5B6EE1"/><rect width="1" height="1" x="14" y="4" fill="#5B6EE1"/><rect width="1" height="1" x="1" y="5" fill="#5B6EE1"/><rect width="1" height="1" x="2" y="5" fill="#5B6EE1"/><rect width="1" height="1" x="3" y="5" fill="#5FCDE4"/><rect width="1" height="1" x="4" y="5" fill="#5FCDE4"/><rect width="1" height="1" x="5" y="5" fill="#5FCDE4"/><rect width="1" height="1" x="6" y="5" fill="#5FCDE4"/><rect width="1" height="1" x="7" y="5" fill="#5FCDE4"/><rect width="1" height="1" x="8" y="5" fill="#5FCDE4"/><rect width="1" height="1" x="9" y="5" fill="#5FCDE4"/><rect width="1" height="1" x="10" y="5" fill="#5FCDE4"/><rect width="1" height="1" x="11" y="5" fill="#5FCDE4"/><rect width="1" height="1" x="12" y="5" fill="#5FCDE4"/><rect width="1" height="1" x="13" y="5" fill="#5B6EE1"/><rect width="1" height="1" x="14" y="5" fill="#5B6EE1"/><rect width="1" height="1" x="1" y="6" fill="#5B6EE1"/><rect width="1" height="1" x="2" y="6" fill="#5FCDE4"/><rect width="1" height="1" x="3" y="6" fill="#5FCDE4"/><rect width="1" height="1" x="4" y="6" fill="#5FCDE4"/><rect width="1" height="1" x="5" y="6" fill="#5FCDE4"/><rect width="1" height="1" x="6" y="6" fill="#5FCDE4"/><rect width="1" height="1" x="7" y="6" fill="#5FCDE4"/><rect width="1" height="1" x="8" y="6" fill="#5FCDE4"/><rect width="1" height="1" x="9" y="6" fill="#5FCDE4"/><rect width="1" height="1" x="10" y="6" fill="#5FCDE4"/><rect width="1" height="1" x="11" y="6" fill="#5FCDE4"/><rect width="1" height="1" x="12" y="6" fill="#5FCDE4"/><rect width="1" height="1" x="13" y="6" fill="#5FCDE4"/><rect width="1" height="1" x="14" y="6" fill="#5B6EE1"/><rect width="1" height="1" x="1" y="7" fill="#5B6EE1"/><rect width="1" height="1" x="2" y="7" fill="#5FCDE4"/><rect width="1" height="1" x="3" y="7" fill="#5FCDE4"/><rect width="1" height="1" x="4" y="7" fill="#5FCDE4"/><rect width="1" height="1" x="5" y="7" fill="#5FCDE4"/><rect width="1" height="1" x="6" y="7" fill="#5FCDE4"/><rect width="1" height="1" x="7" y="7" fill="#5FCDE4"/><rect width="1" height="1" x="8" y="7" fill="#5FCDE4"/><rect width="1" height="1" x="9" y="7" fill="#5FCDE4"/><rect width="1" height="1" x="10" y="7" fill="#5FCDE4"/><rect width="1" height="1" x="11" y="7" fill="#5FCDE4"/><rect width="1" height="1" x="12" y="7" fill="#5FCDE4"/><rect width="1" height="1" x="13" y="7" fill="#5FCDE4"/><rect width="1" height="1" x="14" y="7" fill="#5B6EE1"/><rect width="1" height="1" x="1" y="8" fill="#5B6EE1"/><rect width="1" height="1" x="2" y="8" fill="#5FCDE4"/><rect width="1" height="1" x="3" y="8" fill="#5FCDE4"/><rect width="1" height="1" x="4" y="8" fill="#5FCDE4"/><rect width="1" height="1" x="5" y="8" fill="#5FCDE4"/><rect width="1" height="1" x="6" y="8" fill="#5FCDE4"/><rect width="1" height="1" x="7" y="8" fill="#5FCDE4"/><rect width="1" height="1" x="8" y="8" fill="#5FCDE4"/><rect width="1" height="1" x="9" y="8" fill="#5FCDE4"/><rect width="1" height="1" x="10" y="8" fill="#5FCDE4"/><rect width="1" height="1" x="11" y="8" fill="#5FCDE4"/><rect width="1" height="1" x="12" y="8" fill="#5FCDE4"/><rect width="1" height="1" x="13" y="8" fill="#5FCDE4"/><rect width="1" height="1" x="14" y="8" fill="#5B6EE1"/><rect width="1" height="1" x="1" y="9" fill="#5B6EE1"/><rect width="1" height="1" x="2" y="9" fill="#5FCDE4"/><rect width="1" height="1" x="3" y="9" fill="#5FCDE4"/><rect width="1" height="1" x="4" y="9" fill="#5FCDE4"/><rect width="1" height="1" x="5" y="9" fill="#5FCDE4"/><rect width="1" height="1" x="6" y="9" fill="#5FCDE4"/><rect width="1" height="1" x="7" y="9" fill="#5FCDE4"/><rect width="1" height="1" x="8" y="9" fill="#5FCDE4"/><rect width="1" height="1" x="9" y="9" fill="#5FCDE4"/><rect width="1" height="1" x="10" y="9" fill="#5FCDE4"/><rect width="1" height="1" x="11" y="9" fill="#5FCDE4"/><rect width="1" height="1" x="12" y="9" fill="#5FCDE4"/><rect width="1" height="1" x="13" y="9" fill="#5FCDE4"/><rect width="1" height="1" x="14" y="9" fill="#5B6EE1"/><rect width="1" height="1" x="1" y="10" fill="#5B6EE1"/><rect width="1" height="1" x="2" y="10" fill="#5FCDE4"/><rect width="1" height="1" x="3" y="10" fill="#5FCDE4"/><rect width="1" height="1" x="4" y="10" fill="#5FCDE4"/><rect width="1" height="1" x="5" y="10" fill="#5FCDE4"/><rect width="1" height="1" x="6" y="10" fill="#5FCDE4"/><rect width="1" height="1" x="7" y="10" fill="#5FCDE4"/><rect width="1" height="1" x="8" y="10" fill="#5FCDE4"/><rect width="1" height="1" x="9" y="10" fill="#5FCDE4"/><rect width="1" height="1" x="10" y="10" fill="#5FCDE4"/><rect width="1" height="1" x="11" y="10" fill="#5FCDE4"/><rect width="1" height="1" x="12" y="10" fill="#5FCDE4"/><rect width="1" height="1" x="13" y="10" fill="#5FCDE4"/><rect width="1" height="1" x="14" y="10" fill="#5B6EE1"/><rect width="1" height="1" x="1" y="11" fill="#5B6EE1"/><rect width="1" height="1" x="2" y="11" fill="#5B6EE1"/><rect width="1" height="1" x="3" y="11" fill="#5FCDE4"/><rect width="1" height="1" x="4" y="11" fill="#5FCDE4"/><rect width="1" height="1" x="5" y="11" fill="#5FCDE4"/><rect width="1" height="1" x="6" y="11" fill="#5FCDE4"/><rect width="1" height="1" x="7" y="11" fill="#5FCDE4"/><rect width="1" height="1" x="8" y="11" fill="#5FCDE4"/><rect width="1" height="1" x="9" y="11" fill="#5FCDE4"/><rect width="1" height="1" x="10" y="11" fill="#5FCDE4"/><rect width="1" height="1" x="11" y="11" fill="#5FCDE4"/><rect width="1" height="1" x="12" y="11" fill="#5FCDE4"/><rect width="1" height="1" x="13" y="11" fill="#5B6EE1"/><rect width="1" height="1" x="14" y="11" fill="#5B6EE1"/><rect width="1" height="1" x="1" y="12" fill="#5B6EE1"/><rect width="1" height="1" x="2" y="12" fill="#5B6EE1"/><rect width="1" height="1" x="3" y="12" fill="#5B6EE1"/><rect width="1" height="1" x="4" y="12" fill="#5B6EE1"/><rect width="1" height="1" x="5" y="12" fill="#5B6EE1"/><rect width="1" height="1" x="6" y="12" fill="#5B6EE1"/><rect width="1" height="1" x="7" y="12" fill="#5B6EE1"/><rect width="1" height="1" x="8" y="12" fill="#5B6EE1"/><rect width="1" height="1" x="9" y="12" fill="#5B6EE1"/><rect width="1" height="1" x="10" y="12" fill="#5B6EE1"/><rect width="1" height="1" x="11" y="12" fill="#5B6EE1"/><rect width="1" height="1" x="12" y="12" fill="#5B6EE1"/><rect width="1" height="1" x="13" y="12" fill="#5B6EE1"/><rect width="1" height="1" x="14" y="12" fill="#5B6EE1"/></svg>