<svg xmlns="http://www.w3.org/2000/svg" width="16" height="16" shape-rendering="crispEdges" version="1.1"><rect width="1" height="1" x="4" y="1" fill="#5B6EE1"/><rect width="1" height="1" x="5" y="1" fill="#5B6EE1"/><rect width="1" height="1" x="6" y="1" fill="#722"/><rect width="1" height="1" x="7" y="1" fill="#722"/><rect width="1" height="1" x="8" y="1" fill="#722"/><rect width="1" height="1" x="9" y="1" fill="#722"/><rect width="1" height="1" x="10" y="1" fill="#5B6EE1"/><rect width="1" height="1" x="11" y="1" fill="#5B6EE1"/><rect width="1" height="1" x="4" y="2" fill="#5B6EE1"/><rect width="1" height="1" x="5" y="2" fill="#722"/><rect width="1" height="1" x="6" y="2" fill="#AC3232"/><rect width="1" height="1" x="7" y="2" fill="#AC3232"/><rect width="1" height="1" x="8" y="2" fill="#AC3232"/><rect width="1" height="1" x="9" y="2" fill="#AC3232"/><rect width="1" height="1" x="10" y="2" fill="#722"/><rect width="1" height="1" x="11" y="2" fill="#5B6EE1"/><rect width="1" height="1" x="4" y="3" fill="#722"/><rect width="1" height="1" x="5" y="3" fill="#AC3232"/><rect width="1" height="1" x="6" y="3" fill="#AC3232"/><rect width="1" height="1" x="7" y="3" fill="#AC3232"/><rect width="1" height="1" x="8" y="3" fill="#AC3232"/><rect width="1" height="1" x="9" y="3" fill="#AC3232"/><rect width="1" height="1" x="10" y="3" fill="#AC3232"/><rect width="1" height="1" x="11" y="3" fill="#722"/><rect width="1" height="1" x="4" y="4" fill="#722"/><rect width="1" height="1" x="5" y="4" fill="#AC3232"/><rect width="1" height="1" x="6" y="4" fill="#AC3232"/><rect width="1" height="1" x="7" y="4" fill="#D33F3F"/><rect width="1" height="1" x="8" y="4" fill="#D33F3F"/><rect width="1" height="1" x="9" y="4" fill="#AC3232"/><rect width="1" height="1" x="10" y="4" fill="#AC3232"/><rect width="1" height="1" x="11" y="4" fill="#722"/><rect width="1" height="1" x="4" y="5" fill="#5B6EE1"/><rect width="1" height="1" x="5" y="5" fill="#722"/><rect width="1" height="1" x="6" y="5" fill="#AC3232"/><rect width="1" height="1" x="7" y="5" fill="#AC3232"/><rect width="1" height="1" x="8" y="5" fill="#AC3232"/><rect width="1" height="1" x="9" y="5" fill="#AC3232"/><rect width="1" height="1" x="10" y="5" fill="#722"/><rect width="1" height="1" x="11" y="5" fill="#5B6EE1"/><rect width="1" height="1" x="4" y="6" fill="#5B6EE1"/><rect width="1" height="1" x="5" y="6" fill="#639BFF"/><rect width="1" height="1" x="6" y="6" fill="#722"/><rect width="1" height="1" x="7" y="6" fill="#722"/><rect width="1" height="1" x="8" y="6" fill="#722"/><rect width="1" height="1" x="9" y="6" fill="#722"/><rect width="1" height="1" x="10" y="6" fill="#639BFF"/><rect width="1" height="1" x="11" y="6" fill="#5B6EE1"/><rect width="1" height="1" x="4" y="7" fill="#5B6EE1"/><rect width="1" height="1" x="5" y="7" fill="#639BFF"/><rect width="1" height="1" x="6" y="7" fill="#639BFF"/><rect width="1" height="1" x="7" y="7" fill="#639BFF"/><rect width="1" height="1" x="8" y="7" fill="#639BFF"/><rect width="1" height="1" x="9" y="7" fill="#639BFF"/><rect width="1" height="1" x="10" y="7" fill="#639BFF"/><rect width="1" height="1" x="11" y="7" fill="#5B6EE1"/><rect width="1" height="1" x="4" y="8" fill="#5B6EE1"/><rect width="1" height="1" x="5" y="8" fill="#639BFF"/><rect width="1" height="1" x="6" y="8" fill="#6CA338"/><rect width="1" height="1" x="7" y="8" fill="#6CA338"/><rect width="1" height="1" x="8" y="8" fill="#6CA338"/><rect width="1" height="1" x="9" y="8" fill="#6CA338"/><rect width="1" height="1" x="10" y="8" fill="#639BFF"/><rect width="1" height="1" x="11" y="8" fill="#5B6EE1"/><rect width="1" height="1" x="4" y="9" fill="#5B6EE1"/><rect width="1" height="1" x="5" y="9" fill="#6CA338"/><rect width="1" height="1" x="6" y="9" fill="#99E550"/><rect width="1" height="1" x="7" y="9" fill="#99E550"/><rect width="1" height="1" x="8" y="9" fill="#99E550"/><rect width="1" height="1" x="9" y="9" fill="#99E550"/><rect width="1" height="1" x="10" y="9" fill="#6CA338"/><rect width="1" height="1" x="11" y="9" fill="#5B6EE1"/><rect width="1" height="1" x="4" y="10" fill="#6CA338"/><rect width="1" height="1" x="5" y="10" fill="#99E550"/><rect width="1" height="1" x="6" y="10" fill="#99E550"/><rect width="1" height="1" x="7" y="10" fill="#99E550"/><rect width="1" height="1" x="8" y="10" fill="#99E550"/><rect width="1" height="1" x="9" y="10" fill="#99E550"/><rect width="1" height="1" x="10" y="10" fill="#99E550"/><rect width="1" height="1" x="11" y="10" fill="#6CA338"/><rect width="1" height="1" x="4" y="11" fill="#6CA338"/><rect width="1" height="1" x="5" y="11" fill="#99E550"/><rect width="1" height="1" x="6" y="11" fill="#99E550"/><rect width="1" height="1" x="7" y="11" fill="#C0FF83"/><rect width="1" height="1" x="8" y="11" fill="#C0FF83"/><rect width="1" height="1" x="9" y="11" fill="#99E550"/><rect width="1" height="1" x="10" y="11" fill="#99E550"/><rect width="1" height="1" x="11" y="11" fill="#6CA338"/><rect width="1" height="1" x="4" y="12" fill="#5B6EE1"/><rect width="1" height="1" x="5" y="12" fill="#6CA338"/><rect width="1" height="1" x="6" y="12" fill="#99E550"/><rect width="1" height="1" x="7" y="12" fill="#99E550"/><rect width="1" height="1" x="8" y="12" fill="#99E550"/><rect width="1" height="1" x="9" y="12" fill="#99E550"/><rect width="1" height="1" x="10" y="12" fill="#6CA338"/><rect width="1" height="1" x="11" y="12" fill="#5B6EE1"/><rect width="1" height="1" x="4" y="13" fill="#5B6EE1"/><rect width="1" height="1" x="5" y="13" fill="#5B6EE1"/><rect width="1" height="1" x="6" y="13" fill="#6CA338"/><rect width="1" height="1" x="7" y="13" fill="#6CA338"/><rect width="1" height="1" x="8" y="13" fill="#6CA338"/><rect width="1" height="1" x="9" y="13" fill="#6CA338"/><rect width="1" height="1" x="10" y="13" fill="#5B6EE1"/><rect width="1" height="1" x="11" y="13" fill="#5B6EE1"/></svg>