<svg xmlns="http://www.w3.org/2000/svg" width="16" height="16" shape-rendering="crispEdges" version="1.1"><rect width="1" height="1" x="8" y="0" fill="#639BFF"/><rect width="1" height="1" x="8" y="2" fill="#639BFF"/><rect width="1" height="1" x="8" y="4" fill="#639BFF"/><rect width="1" height="1" x="8" y="6" fill="#639BFF"/><rect width="1" height="1" x="4" y="7" fill="#639BFF"/><rect width="1" height="1" x="5" y="7" fill="#639BFF"/><rect width="1" height="1" x="6" y="7" fill="#639BFF"/><rect width="1" height="1" x="7" y="7" fill="#639BFF"/><rect width="1" height="1" x="8" y="7" fill="#639BFF"/><rect width="1" height="1" x="9" y="7" fill="#639BFF"/><rect width="1" height="1" x="10" y="7" fill="#639BFF"/><rect width="1" height="1" x="11" y="7" fill="#639BFF"/><rect width="1" height="1" x="12" y="7" fill="#639BFF"/><rect width="1" height="1" x="4" y="8" fill="#639BFF"/><rect width="1" height="1" x="5" y="8" fill="#639BFF"/><rect width="1" height="1" x="6" y="8" fill="#639BFF"/><rect width="1" height="1" x="7" y="8" fill="#639BFF"/><rect width="1" height="1" x="8" y="8" fill="#639BFF"/><rect width="1" height="1" x="9" y="8" fill="#639BFF"/><rect width="1" height="1" x="10" y="8" fill="#639BFF"/><rect width="1" height="1" x="11" y="8" fill="#639BFF"/><rect width="1" height="1" x="12" y="8" fill="#639BFF"/><rect width="1" height="1" x="4" y="9" fill="#639BFF"/><rect width="1" height="1" x="5" y="9" fill="#639BFF"/><rect width="1" height="1" x="6" y="9" fill="#639BFF"/><rect width="1" height="1" x="7" y="9" fill="#639BFF"/><rect width="1" height="1" x="8" y="9" fill="#639BFF"/><rect width="1" height="1" x="9" y="9" fill="#639BFF"/><rect width="1" height="1" x="10" y="9" fill="#639BFF"/><rect width="1" height="1" x="11" y="9" fill="#639BFF"/><rect width="1" height="1" x="12" y="9" fill="#639BFF"/><rect width="1" height="1" x="4" y="10" fill="#639BFF"/><rect width="1" height="1" x="5" y="10" fill="#639BFF"/><rect width="1" height="1" x="6" y="10" fill="#639BFF"/><rect width="1" height="1" x="7" y="10" fill="#639BFF"/><rect width="1" height="1" x="8" y="10" fill="#639BFF"/><rect width="1" height="1" x="9" y="10" fill="#639BFF"/><rect width="1" height="1" x="10" y="10" fill="#639BFF"/><rect width="1" height="1" x="11" y="10" fill="#639BFF"/><rect width="1" height="1" x="12" y="10" fill="#639BFF"/><rect width="1" height="1" x="4" y="11" fill="#639BFF"/><rect width="1" height="1" x="5" y="11" fill="#639BFF"/><rect width="1" height="1" x="6" y="11" fill="#639BFF"/><rect width="1" height="1" x="7" y="11" fill="#639BFF"/><rect width="1" height="1" x="8" y="11" fill="#639BFF"/><rect width="1" height="1" x="9" y="11" fill="#639BFF"/><rect width="1" height="1" x="10" y="11" fill="#639BFF"/><rect width="1" height="1" x="11" y="11" fill="#639BFF"/><rect width="1" height="1" x="12" y="11" fill="#639BFF"/><rect width="1" height="1" x="4" y="12" fill="#639BFF"/><rect width="1" height="1" x="5" y="12" fill="#639BFF"/><rect width="1" height="1" x="6" y="12" fill="#639BFF"/><rect width="1" height="1" x="7" y="12" fill="#639BFF"/><rect width="1" height="1" x="8" y="12" fill="#639BFF"/><rect width="1" height="1" x="9" y="12" fill="#639BFF"/><rect width="1" height="1" x="10" y="12" fill="#639BFF"/><rect width="1" height="1" x="11" y="12" fill="#639BFF"/><rect width="1" height="1" x="12" y="12" fill="#639BFF"/></svg>