<svg xmlns="http://www.w3.org/2000/svg" width="16" height="16" shape-rendering="crispEdges" version="1.1"><rect width="1" height="1" x="11" y="2" fill="#6ABE30"/><rect width="1" height="1" x="11" y="3" fill="#6ABE30"/><rect width="1" height="1" x="12" y="3" fill="#6ABE30"/><rect width="1" height="1" x="2" y="4" fill="#6ABE30"/><rect width="1" height="1" x="3" y="4" fill="#6ABE30"/><rect width="1" height="1" x="4" y="4" fill="#6ABE30"/><rect width="1" height="1" x="5" y="4" fill="#6ABE30"/><rect width="1" height="1" x="6" y="4" fill="#6ABE30"/><rect width="1" height="1" x="7" y="4" fill="#6ABE30"/><rect width="1" height="1" x="8" y="4" fill="#6ABE30"/><rect width="1" height="1" x="9" y="4" fill="#6ABE30"/><rect width="1" height="1" x="10" y="4" fill="#6ABE30"/><rect width="1" height="1" x="11" y="4" fill="#6ABE30"/><rect width="1" height="1" x="12" y="4" fill="#6ABE30"/><rect width="1" height="1" x="13" y="4" fill="#6ABE30"/><rect width="1" height="1" x="11" y="5" fill="#6ABE30"/><rect width="1" height="1" x="12" y="5" fill="#6ABE30"/><rect width="1" height="1" x="11" y="6" fill="#6ABE30"/><rect width="1" height="1" x="11" y="10" fill="#6ABE30"/><rect width="1" height="1" x="11" y="11" fill="#6ABE30"/><rect width="1" height="1" x="12" y="11" fill="#6ABE30"/><rect width="1" height="1" x="2" y="12" fill="#6ABE30"/><rect width="1" height="1" x="3" y="12" fill="#6ABE30"/><rect width="1" height="1" x="4" y="12" fill="#6ABE30"/><rect width="1" height="1" x="5" y="12" fill="#6ABE30"/><rect width="1" height="1" x="6" y="12" fill="#6ABE30"/><rect width="1" height="1" x="7" y="12" fill="#6ABE30"/><rect width="1" height="1" x="8" y="12" fill="#6ABE30"/><rect width="1" height="1" x="9" y="12" fill="#6ABE30"/><rect width="1" height="1" x="10" y="12" fill="#6ABE30"/><rect width="1" height="1" x="11" y="12" fill="#6ABE30"/><rect width="1" height="1" x="12" y="12" fill="#6ABE30"/><rect width="1" height="1" x="13" y="12" fill="#6ABE30"/><rect width="1" height="1" x="11" y="13" fill="#6ABE30"/><rect width="1" height="1" x="12" y="13" fill="#6ABE30"/><rect width="1" height="1" x="11" y="14" fill="#6ABE30"/></svg>