<svg xmlns="http://www.w3.org/2000/svg" width="15" height="14" shape-rendering="crispEdges" version="1.1"><rect width="1" height="1" x="8" y="0" fill="#639BFF"/><rect width="1" height="1" x="4" y="1" fill="#639BFF"/><rect width="1" height="1" x="7" y="1" fill="#639BFF"/><rect width="1" height="1" x="8" y="1" fill="#639BFF"/><rect width="1" height="1" x="3" y="2" fill="#639BFF"/><rect width="1" height="1" x="6" y="2" fill="#639BFF"/><rect width="1" height="1" x="7" y="2" fill="#639BFF"/><rect width="1" height="1" x="8" y="2" fill="#639BFF"/><rect width="1" height="1" x="9" y="2" fill="#639BFF"/><rect width="1" height="1" x="10" y="2" fill="#639BFF"/><rect width="1" height="1" x="2" y="3" fill="#639BFF"/><rect width="1" height="1" x="7" y="3" fill="#639BFF"/><rect width="1" height="1" x="8" y="3" fill="#639BFF"/><rect width="1" height="1" x="11" y="3" fill="#639BFF"/><rect width="1" height="1" x="2" y="4" fill="#639BFF"/><rect width="1" height="1" x="8" y="4" fill="#639BFF"/><rect width="1" height="1" x="12" y="4" fill="#639BFF"/><rect width="1" height="1" x="1" y="5" fill="#639BFF"/><rect width="1" height="1" x="5" y="5" fill="#5FCDE4"/><rect width="1" height="1" x="6" y="5" fill="#5FCDE4"/><rect width="1" height="1" x="9" y="5" fill="#5FCDE4"/><rect width="1" height="1" x="13" y="5" fill="#639BFF"/><rect width="1" height="1" x="1" y="6" fill="#639BFF"/><rect width="1" height="1" x="5" y="6" fill="#5FCDE4"/><rect width="1" height="1" x="6" y="6" fill="#5FCDE4"/><rect width="1" height="1" x="9" y="6" fill="#5FCDE4"/><rect width="1" height="1" x="13" y="6" fill="#639BFF"/><rect width="1" height="1" x="1" y="7" fill="#639BFF"/><rect width="1" height="1" x="5" y="7" fill="#5FCDE4"/><rect width="1" height="1" x="7" y="7" fill="#5FCDE4"/><rect width="1" height="1" x="9" y="7" fill="#5FCDE4"/><rect width="1" height="1" x="13" y="7" fill="#639BFF"/><rect width="1" height="1" x="1" y="8" fill="#639BFF"/><rect width="1" height="1" x="5" y="8" fill="#5FCDE4"/><rect width="1" height="1" x="7" y="8" fill="#5FCDE4"/><rect width="1" height="1" x="9" y="8" fill="#5FCDE4"/><rect width="1" height="1" x="13" y="8" fill="#639BFF"/><rect width="1" height="1" x="2" y="9" fill="#639BFF"/><rect width="1" height="1" x="5" y="9" fill="#5FCDE4"/><rect width="1" height="1" x="8" y="9" fill="#5FCDE4"/><rect width="1" height="1" x="9" y="9" fill="#5FCDE4"/><rect width="1" height="1" x="12" y="9" fill="#639BFF"/><rect width="1" height="1" x="2" y="10" fill="#639BFF"/><rect width="1" height="1" x="5" y="10" fill="#5FCDE4"/><rect width="1" height="1" x="8" y="10" fill="#5FCDE4"/><rect width="1" height="1" x="9" y="10" fill="#5FCDE4"/><rect width="1" height="1" x="12" y="10" fill="#639BFF"/><rect width="1" height="1" x="3" y="11" fill="#639BFF"/><rect width="1" height="1" x="4" y="11" fill="#639BFF"/><rect width="1" height="1" x="10" y="11" fill="#639BFF"/><rect width="1" height="1" x="11" y="11" fill="#639BFF"/><rect width="1" height="1" x="5" y="12" fill="#639BFF"/><rect width="1" height="1" x="6" y="12" fill="#639BFF"/><rect width="1" height="1" x="7" y="12" fill="#639BFF"/><rect width="1" height="1" x="8" y="12" fill="#639BFF"/><rect width="1" height="1" x="9" y="12" fill="#639BFF"/></svg>