<svg xmlns="http://www.w3.org/2000/svg" width="13" height="16" shape-rendering="crispEdges" version="1.1"><rect width="1" height="1" x="3" y="2" fill="#5FCDE4"/><rect width="1" height="1" x="8" y="2" fill="#5FCDE4"/><rect width="1" height="1" x="9" y="2" fill="#5FCDE4"/><rect width="1" height="1" x="10" y="2" fill="#5FCDE4"/><rect width="1" height="1" x="4" y="3" fill="#5FCDE4"/><rect width="1" height="1" x="9" y="3" fill="#5FCDE4"/><rect width="1" height="1" x="10" y="3" fill="#5FCDE4"/><rect width="1" height="1" x="5" y="4" fill="#5FCDE4"/><rect width="1" height="1" x="8" y="4" fill="#5FCDE4"/><rect width="1" height="1" x="10" y="4" fill="#5FCDE4"/><rect width="1" height="1" x="6" y="5" fill="#5FCDE4"/><rect width="1" height="1" x="7" y="5" fill="#5FCDE4"/><rect width="1" height="1" x="6" y="6" fill="#5FCDE4"/><rect width="1" height="1" x="6" y="7" fill="#5FCDE4"/><rect width="1" height="1" x="6" y="8" fill="#5FCDE4"/><rect width="1" height="1" x="6" y="9" fill="#5FCDE4"/><rect width="1" height="1" x="5" y="10" fill="#5FCDE4"/><rect width="1" height="1" x="6" y="10" fill="#5FCDE4"/><rect width="1" height="1" x="2" y="11" fill="#5FCDE4"/><rect width="1" height="1" x="4" y="11" fill="#5FCDE4"/><rect width="1" height="1" x="7" y="11" fill="#5FCDE4"/><rect width="1" height="1" x="2" y="12" fill="#5FCDE4"/><rect width="1" height="1" x="3" y="12" fill="#5FCDE4"/><rect width="1" height="1" x="8" y="12" fill="#5FCDE4"/><rect width="1" height="1" x="2" y="13" fill="#5FCDE4"/><rect width="1" height="1" x="3" y="13" fill="#5FCDE4"/><rect width="1" height="1" x="4" y="13" fill="#5FCDE4"/><rect width="1" height="1" x="9" y="13" fill="#5FCDE4"/></svg>