<svg xmlns="http://www.w3.org/2000/svg" width="16" height="16" shape-rendering="crispEdges" version="1.1"><rect width="1" height="1" x="11" y="5" fill="#639BFF"/><rect width="1" height="1" x="11" y="6" fill="#639BFF"/><rect width="1" height="1" x="12" y="6" fill="#639BFF"/><rect width="1" height="1" x="11" y="7" fill="#639BFF"/><rect width="1" height="1" x="12" y="7" fill="#639BFF"/><rect width="1" height="1" x="13" y="7" fill="#639BFF"/><rect width="1" height="1" x="1" y="8" fill="#639BFF"/><rect width="1" height="1" x="2" y="8" fill="#639BFF"/><rect width="1" height="1" x="3" y="8" fill="#639BFF"/><rect width="1" height="1" x="4" y="8" fill="#639BFF"/><rect width="1" height="1" x="5" y="8" fill="#639BFF"/><rect width="1" height="1" x="6" y="8" fill="#639BFF"/><rect width="1" height="1" x="7" y="8" fill="#639BFF"/><rect width="1" height="1" x="8" y="8" fill="#639BFF"/><rect width="1" height="1" x="9" y="8" fill="#639BFF"/><rect width="1" height="1" x="10" y="8" fill="#639BFF"/><rect width="1" height="1" x="11" y="8" fill="#639BFF"/><rect width="1" height="1" x="12" y="8" fill="#639BFF"/><rect width="1" height="1" x="13" y="8" fill="#639BFF"/><rect width="1" height="1" x="14" y="8" fill="#639BFF"/><rect width="1" height="1" x="11" y="9" fill="#639BFF"/><rect width="1" height="1" x="12" y="9" fill="#639BFF"/><rect width="1" height="1" x="13" y="9" fill="#639BFF"/><rect width="1" height="1" x="11" y="10" fill="#639BFF"/><rect width="1" height="1" x="12" y="10" fill="#639BFF"/><rect width="1" height="1" x="11" y="11" fill="#639BFF"/></svg>